<?xml version="1.0" standalone="no"?><!DOCTYPE svg PUBLIC "-//W3C//DTD SVG 1.1//EN" "http://www.w3.org/Graphics/SVG/1.1/DTD/svg11.dtd"><svg t="1756973576612" class="icon" viewBox="0 0 1024 1024" version="1.1" xmlns="http://www.w3.org/2000/svg" p-id="12344" xmlns:xlink="http://www.w3.org/1999/xlink" width="200" height="200"><path d="M993.446655 233.316456c-6.481013-12.962025-12.962025-19.443038-19.443038-25.924051L528.665461 3.703436h-25.924051l-445.338155 203.688969c-6.481013 6.481013-12.962025 12.962025-19.443038 25.924051-4.629295 56.477396-11.110307 164.802893 13.887884 292.571428 50.922242 236.094033 215.725136 400.896926 451.819168 497.186257h25.924051c236.094033-95.363472 400.896926-261.092224 451.819168-497.186257 24.998192-127.768535 18.517179-236.094033 12.036167-292.571428z m-462.929476 426.820976L499.963834 565.699819H349.974684l-30.553346 94.437613H224.983725l150.915009-412.007233h102.770344l148.137432 412.007233H530.517179z m235.168174 0h-87.956601V249.056058h87.956601v411.081374z m0 0" fill="#515151" p-id="12345"></path><path d="M425.895118 319.421338h-2.777577c-0.925859 12.036166-3.703436 23.146474-7.406872 35.18264l-47.218806 143.508138h110.177215l-47.218807-142.582279c-1.851718-9.25859-3.703436-21.294756-5.555153-36.108499z m0 0" fill="#515151" p-id="12346"></path></svg>