<svg xmlns="http://www.w3.org/2000/svg" xmlns:xlink="http://www.w3.org/1999/xlink" width="14" height="14" viewBox="0 0 14 14">
  <metadata><?xpacket begin="﻿" id="W5M0MpCehiHzreSzNTczkc9d"?>
<x:xmpmeta xmlns:x="adobe:ns:meta/" x:xmptk="Adobe XMP Core 5.6-c138 79.159824, 2016/09/14-01:09:01        ">
   <rdf:RDF xmlns:rdf="http://www.w3.org/1999/02/22-rdf-syntax-ns#">
      <rdf:Description rdf:about=""/>
   </rdf:RDF>
</x:xmpmeta>         
<?xpacket end="w"?></metadata>
<defs>
    <style>
      .cls-1 {
        fill: #2c6cc4;
        fill-rule: evenodd;
        filter: url(#filter);
      }
    </style>
    <filter id="filter" x="16" y="137" width="14" height="14" filterUnits="userSpaceOnUse">
      <feFlood result="flood" flood-color="#2c6cc4"/>
      <feComposite result="composite" operator="in" in2="SourceGraphic"/>
      <feBlend result="blend" in2="SourceGraphic"/>
    </filter>
  </defs>
  <path id="圆角矩形_1921" data-name="圆角矩形 1921" class="cls-1" d="M28.833,137H17.166A1.118,1.118,0,0,0,16,138.064V146a0.929,0.929,0,0,0,1,1H29a0.93,0.93,0,0,0,1-1v-7.936A1.119,1.119,0,0,0,28.833,137ZM29,146H17v-8H29v8Zm-10.5,4h9a0.5,0.5,0,0,1,0,1h-9A0.5,0.5,0,0,1,18.5,150Z" transform="translate(-16 -137)"/>
</svg>
