<?xml version="1.0" standalone="no"?><!DOCTYPE svg PUBLIC "-//W3C//DTD SVG 1.1//EN" "http://www.w3.org/Graphics/SVG/1.1/DTD/svg11.dtd"><svg t="1733456028122" class="icon" viewBox="0 0 1024 1024" version="1.1" xmlns="http://www.w3.org/2000/svg" p-id="13431" xmlns:xlink="http://www.w3.org/1999/xlink" width="200" height="200"><path d="M903.4 885H120.2c-31.7 0-55.9-24.2-55.9-55.9V195c0-31.7 24.2-55.9 55.9-55.9h276c14.9 0 29.8 5.6 39.2 16.8l59.7 59.7c11.2 11.2 24.2 16.8 39.2 16.8h369.2c31.7 0 55.9 24.2 55.9 55.9v540.8c-0.1 31.7-24.3 55.9-56 55.9zM542.7 773.4l156.6-167.8c20.5-22.4 3.7-61.5-28-61.5H593v-112c0-20.5-16.8-37.3-37.3-37.3h-74.6c-20.5 0-37.3 16.8-37.3 37.3V544H358c-33.6 0-50.4 37.3-28 61.5l156.6 167.8c7.5 7.5 18.6 11.2 28 11.2 11.4 0.1 20.7-3.6 28.1-11.1z" fill="#606266" p-id="13432"></path></svg>