<?xml version="1.0" standalone="no"?><!DOCTYPE svg PUBLIC "-//W3C//DTD SVG 1.1//EN" "http://www.w3.org/Graphics/SVG/1.1/DTD/svg11.dtd"><svg t="1655174237447" class="icon" viewBox="0 0 1024 1024" version="1.1" xmlns="http://www.w3.org/2000/svg" p-id="4612" xmlns:xlink="http://www.w3.org/1999/xlink" width="200" height="200"><defs><style type="text/css">@font-face { font-family: feedback-iconfont; src: url("//at.alicdn.com/t/font_1031158_u69w8yhxdu.woff2?t=1630033759944") format("woff2"), url("//at.alicdn.com/t/font_1031158_u69w8yhxdu.woff?t=1630033759944") format("woff"), url("//at.alicdn.com/t/font_1031158_u69w8yhxdu.ttf?t=1630033759944") format("truetype"); }
</style></defs><path d="M941.5 539.7V279.2c0-51.5-25.7-92.2-74.4-117.7l-2.5-1.2C644.3 63.4 601.8 43.1 593.9 39c-23.3-12.3-50.4-18.5-80.6-18.5h-2.6c-30.1 0-57.2 6.2-80.5 18.5-9.8 5.1-57.9 27.7-270.9 121.4l-2.5 1.2c-48.6 25.5-74.3 66.2-74.3 117.6v259.4C72.2 734.3 187 881.1 423.8 975l7.5 2.9h0.1c14.5 5.6 29.1 10.9 43.6 15.9l35.9 9.8 35.9-9.7c15.1-5.2 29.4-10.4 43.3-15.9l8-2.9C835.9 881 951.4 734.5 941.5 539.7zM575.2 896l-8.3 3c-17.6 7.1-36 13.8-56 20.5-18.8-6.2-37.8-13.1-56.7-20.6l-5.5-2.1c-182.9-73.8-276.4-177.1-284.3-315l0.1-302.6c0-14.2 3.5-30.6 29.3-44.5C357 162.9 449.3 121.4 468.3 111.5c11.6-6.1 25.5-9.1 42.4-9.1h2.6c16.7 0 31 3 42.5 9.1C579.9 124 718 185.3 830.2 234.7c25.8 13.9 29.3 30.3 29.3 44.5v261.6l0.1 2.2c8.4 156.6-84.7 272.1-284.4 353z" p-id="4613"></path><path d="M675.8 373.5c0-90.5-73.4-163.8-163.8-163.8S348.2 283 348.2 373.5c0 75.5 51.2 139 120.7 157.9v242c0 22.5 18.4 41 41 41 22.5 0 41-18.4 41-41v-81.9h45.2c22.5 0 41-18.4 41-41 0-22.5-18.4-41-41-41h-45.2v-77.1c71.6-17.4 124.9-81.8 124.9-158.9z m-245.7 0c0-45.2 36.7-81.9 81.9-81.9s81.9 36.7 81.9 81.9-36.7 81.9-81.9 81.9-81.9-36.8-81.9-81.9z" p-id="4614"></path></svg>