<svg t="1655446466752" class="icon" viewBox="0 0 1024 1024" version="1.1" xmlns="http://www.w3.org/2000/svg" p-id="1829" width="200" height="200"><path d="M409.69 692.96c0-46.88 10.34-90.32 31.03-129.62C249.05 577.13 99.44 734.33 99.44 926h431.6c-75.15-51.71-121.35-137.21-121.35-233.04z m51.71-180.64h13.1c41.37-48.95 97.9-82.74 159.95-95.83 20.68-31.03 31.03-69.64 31.03-108.93 0-113.76-93.08-206.84-206.84-206.84S251.8 193.8 251.8 307.56c2.76 111.68 95.84 204.76 209.6 204.76zM893 695.72l-5.52-2.76-2.76-2.76s5.52-2.76 7.58-5.52c20.68-10.34 31.03-31.03 28.27-51.71-2.76-23.44-7.58-41.37-17.93-56.54-15.17-26.2-38.61-33.78-69.64-23.44-2.76 0-5.52 2.76-7.58 2.76v-5.52c7.58-20.68 2.76-44.13-13.1-62.05-5.52-5.52-15.17-15.17-31.03-20.68-13.1-5.52-26.2-7.58-35.85-7.58-33.78 0-46.88 28.27-51.71 38.61l-2.76-2.76s0-2.76-2.76-2.76c0-2.76-2.76-5.52-2.76-7.58-10.34-15.17-26.2-26.2-44.13-26.2h-6.89c-13.1 2.76-26.2 2.76-38.61 10.34-35.85 17.93-48.95 41.37-41.37 77.22v6.89c-2.76 0-5.52 0-7.58-2.76-23.44-7.58-44.13 0-59.29 17.93-7.58 10.34-15.17 23.44-17.93 41.37-10.34 35.85 0 62.05 33.78 77.22 0 0-2.76 2.76-5.52 2.76-20.68 7.58-31.03 26.2-33.78 48.95 0 28.27 7.58 54.47 28.27 72.39 13.1 13.1 28.27 17.93 48.95 15.17 2.76 0 5.52 0 7.58-2.76h2.76v2.76c-7.58 23.44-2.76 44.13 15.17 62.05 13.1 13.1 28.27 20.68 48.95 26.2 10.34 2.76 17.93 2.76 23.44 2.76 31.03 0 46.88-26.2 51.71-35.85 0-2.76 2.76-2.76 2.76-2.76l5.52 5.52c0 2.76 2.76 5.52 5.52 7.58 13.1 20.68 31.03 28.27 54.47 26.2 17.93-2.76 33.78-7.58 48.95-17.93 26.2-17.93 33.78-44.13 23.44-72.39h7.58c31.03 7.58 54.47-2.76 72.39-31.03 7.58-13.1 13.1-28.27 15.17-46.88 0.03-20.68-13.07-41.36-33.76-54.46z m-59.29 2.75c2.76 15.17 10.34 31.03 26.2 38.61 2.76 0 2.76 2.76 5.52 2.76h2.76c5.52 2.76 5.52 2.76 5.52 7.58 0 10.34-2.76 15.17-7.58 23.44-4.83 8.27-7.58 7.58-10.34 7.58h-7.58c-2.76 0-5.52 0-7.58-2.76h-2.76c-23.44-2.76-41.37 5.52-51.71 20.68-10.34 15.17-10.34 33.78-5.52 51.71 2.76 5.52 2.76 5.52-2.76 10.34-7.58 5.52-17.93 10.34-31.03 10.34l-2.76-2.76s0-2.76-2.76-5.52c0-2.76-2.76-2.76-2.76-2.76-13.1-23.44-33.78-28.27-46.88-28.27-10.34 0-31.03 2.76-46.88 28.27-5.52 7.58-7.58 10.34-7.58 10.34-2.76 0-5.52 0-10.34-2.76-10.34-2.76-20.68-7.58-28.27-15.17v-2.76c0-2.76 0-2.76 2.76-7.58 5.52-15.17 5.52-31.03-5.52-44.13-7.58-13.1-23.44-20.68-38.61-20.68h-7.58c-5.52 0-10.34 0-15.17 2.76h-7.58c-10.34-10.34-13.1-23.44-13.1-38.61 13.1-5.52 20.68-13.1 28.27-23.44 7.58-13.1 10.34-26.2 7.58-41.37s-13.1-28.27-28.27-35.85c-10.34-5.52-10.34-5.52-7.58-17.93 2.76-10.34 5.52-15.17 10.34-20.68l2.76-2.76h2.76c15.17 5.52 26.2 5.52 35.85 2.76 28.27-7.58 44.13-33.78 38.61-67.57-2.76-7.58 0-10.34 0-10.34s2.76-2.76 13.1-7.58c7.58-2.76 13.1-5.52 23.44-5.52l2.76 2.76c2.76 2.76 2.76 4.83 5.52 7.58 10.34 15.17 28.27 26.2 46.88 26.2s35.85-10.34 44.13-28.27c5.52-10.34 7.58-10.34 7.58-10.34 5.52 0 15.17 5.52 20.68 5.52 5.52 2.76 7.58 5.52 13.1 7.58 2.76 2.76 2.76 2.76 2.76 5.52-5.52 13.1-5.52 26.2-2.76 35.85 5.52 26.2 31.03 44.13 59.29 38.61 5.52 0 10.34-2.76 15.17-5.52 2.76 0 5.52 0 5.52-2.76 0 0 2.76 0 5.52 5.52 5.52 7.58 7.58 17.93 10.34 31.03l-5.52 13.1c-5.52 2.76-13.1 7.58-20.68 15.17-15.19 11.06-20.02 26.23-17.26 42.08zM693.75 589.54c-56.54 0-103.42 46.88-103.42 103.42s46.88 103.42 103.42 103.42 103.42-46.88 103.42-103.42-46.2-103.42-103.42-103.42z m0 155.82c-28.27 0-51.71-23.44-51.71-51.71s23.44-51.71 51.71-51.71 51.71 23.44 51.71 51.71-22.75 51.71-51.71 51.71z" p-id="1830"></path></svg>