<svg t="1661479232236" class="icon" viewBox="0 0 1024 1024" version="1.1" xmlns="http://www.w3.org/2000/svg" p-id="7006" width="200" height="200"><path d="M536.974222 541.411556a207.644444 207.644444 0 1 1 0-415.288889 207.644444 207.644444 0 0 1 0 415.288889z m0-56.888889a150.755556 150.755556 0 1 0 0-301.511111 150.755556 150.755556 0 0 0 0 301.511111zM286.890667 917.731556a182.044444 182.044444 0 1 1 0-364.088889 182.044444 182.044444 0 0 1 0 364.088889z m0-56.888889a125.155556 125.155556 0 1 0 0-250.311111 125.155556 125.155556 0 0 0 0 250.311111zM775.736889 848.952889a130.844444 130.844444 0 1 1 0-261.688889 130.844444 130.844444 0 0 1 0 261.688889z m0-56.888889a73.955556 73.955556 0 1 0 0-147.911111 73.955556 73.955556 0 0 0 0 147.911111z" p-id="7007"></path><path d="M749.340444 618.268444l-48.810666 29.240889-89.258667-148.935111 48.810667-29.240889 89.258666 148.935111zM423.822222 470.584889l47.786667 30.776889-77.255111 120.035555-47.843556-30.776889 77.312-120.035555z" p-id="7008"></path></svg>